<svg width="42" height="136" viewBox="0 0 42 136" fill="none" xmlns="http://www.w3.org/2000/svg">
<path d="M21 0C32.598 0 42 9.40202 42 21V114.546C41.9998 126.144 32.5978 135.546 21 135.546C9.40217 135.546 0.000239336 126.144 0 114.546V21C4.54425e-06 9.40202 9.40202 0 21 0ZM10.8359 77.5137C8.72721 77.5137 7.01758 79.2233 7.01758 81.332C7.01758 83.4408 8.72721 85.1504 10.8359 85.1504H31.6514L31.8477 85.1455C33.8651 85.0433 35.4697 83.3749 35.4697 81.332C35.4697 79.2892 33.8651 77.6208 31.8477 77.5186L31.6514 77.5137H10.8359ZM10.8359 63.9551C8.72721 63.9551 7.01758 65.6647 7.01758 67.7734C7.01758 69.8822 8.72721 71.5918 10.8359 71.5918H31.6514L31.8477 71.5869C33.8651 71.4847 35.4697 69.8163 35.4697 67.7734C35.4697 65.7306 33.8651 64.0622 31.8477 63.96L31.6514 63.9551H10.8359ZM10.8359 50.3965C8.72721 50.3965 7.01758 52.1061 7.01758 54.2148C7.01758 56.3236 8.72721 58.0332 10.8359 58.0332H31.6514L31.8477 58.0283C33.8651 57.9261 35.4697 56.2577 35.4697 54.2148C35.4697 52.172 33.8651 50.5036 31.8477 50.4014L31.6514 50.3965H10.8359Z" fill="#E3B877"/>
</svg>
